<svg width="560" height="602" viewBox="0 0 560 602" fill="none" xmlns="http://www.w3.org/2000/svg">
<g clip-path="url(#clip0_1462_838)">
<path fill-rule="evenodd" clip-rule="evenodd" d="M387.578 692.84C400.388 689.06 413.048 687.57 425.478 687.57C450.968 687.57 475.388 693.86 497.808 699.63L497.918 699.66C499.152 699.981 500.38 700.298 501.602 700.612C504.065 701.246 504.32 704.606 501.954 705.538C501.443 705.738 500.872 705.78 500.34 705.644C499.638 705.465 498.931 705.28 498.218 705.1C497.688 704.96 497.158 704.83 496.628 704.69C463.908 696.24 426.808 686.67 389.038 697.79C352.932 708.433 323.665 723.592 298.112 739.657C297.703 739.914 297.233 740.055 296.749 740.066C294.085 740.122 293.045 736.711 295.3 735.291C321.151 719.012 350.836 703.652 387.578 692.84ZM354.128 736.83C354.126 736.83 354.125 736.827 354.127 736.826C363.994 732.708 374.431 728.909 385.528 725.49C398.558 721.49 411.468 719.91 424.128 719.91C427.447 719.91 430.748 720.018 434.029 720.22C437.183 720.413 437.413 724.425 434.32 725.07C434.071 725.122 433.809 725.142 433.554 725.126C418.306 724.209 402.686 725.37 386.988 730.2C382.154 731.688 377.441 733.246 372.837 734.893C372.824 734.898 372.811 734.9 372.798 734.9C366.648 735.61 360.428 736.26 354.128 736.83ZM499.198 667.125C499.204 667.124 499.204 667.116 499.199 667.114L499.078 667.08C476.708 661.4 452.338 655.21 426.818 655.21C414.648 655.21 402.208 656.62 389.618 660.16C329.628 677.07 288.148 706.66 251.528 732.78L248.898 734.66L248.818 734.71C248.674 734.812 248.53 734.915 248.386 735.017C246.252 736.535 247.255 739.883 249.872 739.955C250.471 739.971 251.061 739.79 251.55 739.443C251.871 739.215 252.193 738.986 252.516 738.758C252.524 738.753 252.531 738.747 252.538 738.74C252.544 738.733 252.552 738.727 252.559 738.722C253.255 738.225 253.951 737.727 254.638 737.23C290.888 711.36 331.978 682.06 391.048 665.41C428.648 654.82 465.408 664.15 497.838 672.4L497.978 672.43C514.765 676.696 530.402 680.669 544.554 681.497C546.632 681.619 548.677 681.011 550.41 679.858L554.688 677.01C554.838 676.91 554.928 676.742 554.928 676.562C554.928 676.248 554.662 676.001 554.349 676.022C538.419 677.104 519.692 672.35 499.198 667.135C499.193 667.134 499.193 667.126 499.198 667.125ZM500.523 634.555C500.526 634.552 500.53 634.55 500.534 634.551L500.628 634.57L500.728 634.6C519.654 639.339 537.031 643.69 551.991 643.39C553.572 643.359 554.908 644.608 554.908 646.19C554.908 647.778 553.669 649.096 552.081 649.126C536.446 649.412 518.694 644.977 499.388 640.15L499.218 640.11L499.118 640.08C466.978 632.04 430.578 622.93 393.118 633.02C333.318 649.1 291.658 678.74 254.908 704.88L254.818 704.95L254.688 705.04C237.711 717.128 221.703 728.526 205.327 737.585C205.321 737.588 205.314 737.59 205.308 737.59C202.265 737.34 201.449 733.206 204.111 731.71C219.764 722.917 235.182 711.947 251.498 700.33L251.528 700.31L251.568 700.28C288.718 673.84 330.818 643.87 391.648 627.52C404.018 624.19 416.218 622.86 428.158 622.86C453.745 622.86 478.143 628.959 500.511 634.558C500.515 634.559 500.52 634.558 500.523 634.555ZM45.0577 704.115C45.064 704.112 45.0714 704.112 45.0776 704.115C47.0644 705.173 49.0711 706.192 51.0677 707.16C74.1078 718.33 94.9077 722.64 113.158 724.41C113.185 724.41 113.212 724.421 113.239 724.424C119.074 724.991 124.66 725.29 129.968 725.48C178.268 727.12 213.838 701.89 254.978 672.67C292.268 646.17 334.538 616.14 395.178 600.62C432.608 591.03 468.798 599.96 500.718 607.84C519.388 612.442 536.55 616.673 551.707 616.658C553.334 616.656 554.616 615.317 554.585 613.69C554.554 612.009 553.141 610.682 551.46 610.681C537.039 610.664 520.347 606.549 502.148 602.06L501.918 602C479.558 596.49 455.168 590.49 429.518 590.49C417.808 590.49 405.838 591.75 393.688 594.85C331.978 610.66 289.228 641.03 251.508 667.83C211.258 696.43 176.448 721.11 130.158 719.56C92.5298 718.206 48.9696 709.656 0.563416 664.922C-1.29883 663.201 -4.3623 664.503 -4.3623 667.038C-4.3623 667.836 -4.02954 668.6 -3.44232 669.141C12.3729 683.702 28.5707 695.394 45.0379 704.115C45.0441 704.118 45.0515 704.118 45.0577 704.115ZM503.809 569.53C503.815 569.53 503.82 569.532 503.824 569.536C503.826 569.539 503.83 569.54 503.833 569.541C518.368 573.078 531.914 576.362 544.039 577.523C546.112 577.722 548.11 578.437 549.772 579.692C551.079 580.679 552.379 581.674 553.668 582.686C553.832 582.815 553.928 583.012 553.928 583.22C553.96 583.758 553.527 584.207 552.988 584.209C538.044 584.249 521.052 580.121 502.518 575.62L502.348 575.58C470.628 567.85 434.638 559.11 397.218 568.22C388.129 570.427 379.442 572.97 371.112 575.801C369.136 576.473 367.054 575.072 366.961 572.987C366.9 571.618 367.743 570.369 369.041 569.927C377.542 567.031 386.429 564.435 395.748 562.17C407.678 559.27 419.418 558.11 430.878 558.11C456.776 558.11 481.325 564.069 503.793 569.529C503.796 569.53 503.799 569.53 503.802 569.53H503.809ZM255.103 640.38C255.101 640.38 255.101 640.378 255.102 640.377C275.609 625.829 297.603 610.234 323.233 596.613C326.039 595.122 324.997 590.71 321.82 590.71C321.332 590.71 320.851 590.829 320.421 591.058C294.463 604.845 272.253 620.594 251.518 635.3C210.878 664.12 175.778 689.01 128.928 687.44C94.3916 686.231 50.9185 678.093 1.97491 634.045C-0.39447 631.913 -4.23077 633.532 -4.24231 636.72C-4.24231 636.784 -4.2146 636.845 -4.16766 636.888C46.9821 683.818 92.5853 692.391 128.728 693.66C177.618 695.34 213.448 669.93 254.898 640.53L255.104 640.383C255.105 640.382 255.104 640.38 255.103 640.38ZM484.471 538.757C484.469 538.759 484.466 538.76 484.464 538.759C457.995 532.99 429.166 528.93 399.268 535.81C388.981 538.179 379.196 540.996 369.871 544.167C367.82 544.865 365.657 543.413 365.558 541.249C365.493 539.825 366.368 538.526 367.717 538.066C377.251 534.817 387.268 531.927 397.808 529.5C409.528 526.79 421.028 525.71 432.268 525.71C441.646 525.71 450.829 526.468 459.8 527.694C461.286 527.897 462.734 528.316 464.102 528.932C470.988 532.031 477.77 535.31 484.469 538.745C484.473 538.748 484.474 538.754 484.471 538.757ZM255.213 608.09C255.211 608.09 255.211 608.088 255.212 608.087L255.508 607.88C260.736 604.178 266.059 600.41 271.512 596.627C274.109 594.824 272.839 590.71 269.677 590.71C269.026 590.71 268.391 590.908 267.855 591.279C263.102 594.57 258.454 597.867 253.868 601.11L252.638 601.98L251.488 602.8L251.438 602.84C211.658 631 177.168 655.42 131.838 655.42C130.468 655.42 129.078 655.41 127.688 655.36C96.2443 654.287 52.1393 646.669 1.62555 601.63C-0.443726 599.785 -3.77484 601.198 -3.82617 603.97C-3.84332 604.897 -3.44641 605.787 -2.75543 606.405C49.2499 652.861 94.9164 660.728 127.468 661.83C177.046 663.42 213.265 637.792 255.214 608.093C255.215 608.092 255.214 608.09 255.213 608.09ZM364.147 509.481C364.082 508.007 364.988 506.662 366.383 506.183C371.547 504.408 376.848 502.753 382.31 501.23C382.453 501.191 382.603 501.187 382.748 501.22C386.271 502.056 386.252 507.088 382.77 508.084C377.948 509.465 373.241 510.948 368.644 512.522C366.506 513.254 364.247 511.739 364.147 509.481ZM1.83771 578.895C1.83771 578.893 1.84015 578.892 1.84174 578.893C52.03 621.61 95.2286 628.99 126.198 630.01C164.493 631.224 194.817 616.485 225.819 596.154C228.344 594.499 227.15 590.414 224.152 590.058C223.416 589.971 222.705 590.146 222.085 590.553C192.033 610.255 162.74 624.477 126.428 623.29C97.1079 622.32 56.4198 615.426 8.92719 576.041C8.04572 575.31 6.76678 575.253 5.84314 575.929C4.50415 576.911 3.17023 577.899 1.84155 578.897C1.83997 578.898 1.83771 578.897 1.83771 578.895ZM46.9977 577.675C46.9977 577.677 46.9953 577.679 46.9933 577.678C40.6328 574.396 34.2921 570.688 27.9816 566.568C25.8501 565.177 25.8743 562.077 28.0188 560.705C29.2097 559.944 30.7371 559.965 31.9241 560.733C61.8592 580.091 92.8 590.163 125.178 591.21C148.184 591.937 168.398 586.564 187.772 577.551C188.894 577.029 190.198 577.165 191.203 577.888C193.325 579.412 193.228 582.749 190.86 583.854C171.862 592.721 151.95 598.25 129.328 598.25C127.878 598.25 126.418 598.22 124.938 598.19C97.4694 597.28 71.9808 590.581 47.0022 577.672C47.0002 577.671 46.9977 577.673 46.9977 577.675ZM49.9977 547.435C49.9977 547.432 49.9994 547.429 50.002 547.428C51.3884 546.643 52.7806 545.867 54.177 545.098C56.4444 543.85 59.1667 543.782 61.5384 544.818C81.9069 553.717 102.663 558.451 123.908 559.12C139.613 559.613 154.037 557.293 167.76 552.948C169.492 552.4 171.369 553.271 172.151 554.911C173.073 556.846 172.171 559.188 170.129 559.838C155.689 564.427 140.432 566.874 123.678 566.37C98.4394 565.56 73.9509 559.311 50.0024 547.442C49.9995 547.441 49.9977 547.438 49.9977 547.435ZM160.417 522.678C162.689 522.075 164.962 523.776 165.106 526.122C165.21 527.816 164.151 529.346 162.512 529.788C149.884 533.188 136.618 534.968 122.418 534.54C113.944 534.276 105.5 533.335 97.074 531.711C93.3336 530.991 92.9009 526.116 96.4073 524.627C97.1555 524.31 97.9837 524.227 98.7819 524.38C106.725 525.902 114.678 526.783 122.658 527.03C136.062 527.438 148.53 525.831 160.417 522.678ZM173.028 464.576C171.824 458.746 166.118 454.984 160.316 456.314C104.179 469.172 50.9319 491.543 3.13544 521.916C0.23468 523.759 -1.55634 526.935 -1.69031 530.37C-2.03076 539.101 7.80627 544.469 15.187 539.793C60.6604 510.979 111.302 489.716 164.679 477.43C170.479 476.094 174.232 470.405 173.028 464.576ZM248.203 486.435C248.2 486.432 248.199 486.428 248.202 486.424C254.847 477.044 252.786 463.328 244.168 451.51C218.068 415.72 154.968 416.82 104.618 429.8C74.093 437.661 45.2448 448.565 18.4764 462.049C10.9384 465.846 1.89246 460.097 2.48517 451.677C2.74377 448.004 4.88641 444.783 8.17139 443.119C36.4699 428.788 66.9594 417.233 99.2477 408.93C209.048 380.66 251.268 424.66 261.598 438.83C275.518 457.94 277.398 480.59 266.438 497.93C262.131 504.767 256.306 510.181 249.231 514.089C230.505 524.434 214.048 546.688 235.438 546.27H310.577C314.766 546.27 317.868 542.499 317.868 538.31V474.65C317.868 462.59 314.908 401.12 256.498 376.12C192.457 348.713 106.521 355.156 24.3392 391.029C16.6815 394.372 8.05865 388.17 9.05646 379.875C9.49811 376.203 11.8179 373.183 15.2078 371.704C44.4695 358.939 74.7315 349.39 104.258 343.75C125.878 339.62 146.998 337.58 167.308 337.58C202.838 337.58 235.908 343.85 264.968 356.3C319.878 379.79 339.428 432.84 339.428 474.65V538.31C339.428 543.37 341.578 550.16 342.648 552.5C345.96 559.648 340.741 567.82 332.862 567.82H235.438C214.498 567.82 189.498 559.86 189.348 521.9C189.348 508.869 201.867 499.274 214.899 499.266C227.278 499.257 240.996 496.595 248.204 486.446C248.206 486.442 248.206 486.438 248.203 486.435ZM273.778 246.825C273.784 246.822 273.792 246.821 273.799 246.822L274.765 246.979C275.091 247.033 275.424 247.033 275.751 246.979L276.728 246.82C328.91 238.444 381.516 200.049 410.705 154.613C413.832 149.745 412.355 143.365 407.449 140.298C402.187 137.008 395.274 138.91 391.879 144.104C370.5 176.806 334.924 205.807 297.685 219.173C283.2 224.372 267.296 224.373 252.81 219.175C215.585 205.818 180.021 176.833 158.634 144.134C155.24 138.944 148.337 137.041 143.081 140.331C138.176 143.401 136.695 149.786 139.824 154.654C169.018 200.074 221.607 238.44 273.757 246.828C273.764 246.829 273.771 246.828 273.778 246.825ZM275.263 179.44C275.263 179.44 275.263 179.439 275.263 179.439L273.733 179.181C273.729 179.18 273.726 179.18 273.723 179.18C273.719 179.18 273.716 179.18 273.713 179.179C243.846 174.167 213.693 149.059 200.446 121.08C198.096 116.117 200.543 110.436 205.58 108.248C211.434 105.705 218.245 108.94 221.221 114.586C229.711 130.691 245.808 145.843 262.862 153.449C270.74 156.963 279.775 156.961 287.652 153.446C304.707 145.834 320.811 130.68 329.302 114.571C332.279 108.922 339.098 105.687 344.954 108.232C349.984 110.418 352.432 116.092 350.086 121.05C336.839 149.044 306.671 174.169 276.798 179.18L275.263 179.439C275.262 179.439 275.262 179.44 275.263 179.44ZM452.975 409.297C446.102 407.105 439.198 412.305 439.198 419.52C439.198 424.32 442.35 428.537 446.925 429.989C474.492 438.736 505.537 451.267 532.394 464.436C539.942 468.137 548.874 462.346 548.294 453.959C548.035 450.209 545.826 446.925 542.453 445.266C515.525 432.022 482.446 418.693 452.975 409.297ZM342.838 364.4C320.298 337.27 289.738 316.89 258.998 308.55C192.986 290.594 111.186 261.5 70.5851 220.412C67.1048 216.89 66.8771 211.317 69.8057 207.324C73.9732 201.642 82.3349 201.843 87.3731 206.769C117.472 236.198 179.019 264.456 264.658 287.75C304.845 298.67 346.543 327.929 373.507 369.528C404.366 417.134 440.885 468.124 492.111 492.508C511.425 501.702 530.136 511.835 547.311 522.269C550.316 524.095 552.186 527.333 552.323 530.846C552.658 539.473 543.037 544.869 535.663 540.378C491.154 513.27 438.443 489.792 389.708 478.23C384.851 477.087 381.418 472.74 381.418 467.75C381.418 420.72 360.448 385.59 342.848 364.41L342.838 364.4ZM343.647 277.839C343.647 277.84 343.648 277.84 343.649 277.841L358.248 288.49C370.838 297.67 394.878 318.22 414.348 352.69C415.873 355.391 418.491 357.301 421.528 357.93C451.789 364.243 493.059 375.803 526.385 387.321C534.08 389.98 542.043 383.621 541.03 375.543C540.522 371.49 537.789 368.237 533.928 366.905C510.123 358.691 479.01 349.628 452.925 343.062C438.769 339.498 426.68 330.482 418.048 318.71C418.568 319.43 427.228 316.82 431.468 315.54C432.518 315.22 433.298 314.99 433.618 314.91C438.938 313.52 444.238 312.05 449.508 310.5C459.518 307.55 469.388 304.21 479.168 300.56C489.871 296.565 500.447 292.263 510.974 287.847C516.492 285.532 519.154 279.119 516.955 273.554C514.694 267.834 508.23 265.34 502.531 267.654C472.242 279.952 441.943 291.176 409.849 298.433C405.475 299.422 400.492 297.415 397.369 294.197C391.154 287.792 392.87 277.254 400.419 272.493C423.071 258.205 453.894 235.677 475.968 218.926C480.743 215.302 481.745 208.464 478.115 203.693C474.462 198.891 467.669 198.23 462.854 201.867C433.381 224.122 387.565 256.818 359.928 270.02L343.629 277.81C343.628 277.81 343.627 277.81 343.627 277.81C343.623 277.81 343.622 277.814 343.624 277.816L343.647 277.839ZM24.6777 298.36C27.8934 288.663 38.1341 283.396 48.1371 285.472C59.5566 287.842 71.4998 289.798 83.9123 291.207C89.4764 291.839 93.7578 296.495 93.7578 302.095C93.7578 308.413 88.3574 313.396 82.0783 312.691C62.6283 310.508 44.2318 307.008 27.0758 302.695C25.1652 302.215 24.0447 300.226 24.6777 298.36Z" fill="url(#paint0_linear_1462_838)"/>
</g>
<defs>
<linearGradient id="paint0_linear_1462_838" x1="631.56" y1="1000.35" x2="-11.3" y2="198.99" gradientUnits="userSpaceOnUse">
<stop stop-color="#0CD467"/>
<stop offset="1" stop-color="#0CD467"/>
</linearGradient>
<clipPath id="clip0_1462_838">
<rect width="560" height="602" fill="white" transform="matrix(-1 0 0 -1 560 602)"/>
</clipPath>
</defs>
</svg>
